<?xml version="1.0" encoding="UTF-8"?>
<svg version="1.1" xmlns="http://www.w3.org/2000/svg" width="192" height="192">
<path d="M0 0 C48.84 0 97.68 0 148 0 C148 42.9 148 85.8 148 130 C139.93565199 133.360145 131.97990492 136.50605563 123.734375 139.3203125 C122.61613342 139.70565155 121.49789185 140.0909906 120.34576416 140.48800659 C116.81507981 141.70397085 113.28264131 142.9147343 109.75 144.125 C106.20342037 145.3433828 102.65722503 146.56287113 99.11138916 147.78341675 C96.91703004 148.53840811 94.72219104 149.29200665 92.52679443 150.04397583 C91.52505188 150.38798431 90.52330933 150.7319928 89.49121094 151.08642578 C88.54499878 151.40887268 87.59878662 151.73131958 86.62390137 152.0635376 C84.27379348 152.90228394 82.00065668 153.84331359 79.70410156 154.81591797 C71.80614335 157.34064097 64.47367191 153.60257236 56.99609375 150.921875 C55.84061539 150.51342346 54.68513702 150.10497192 53.49464417 149.68414307 C49.80672984 148.37887203 46.12210809 147.06457137 42.4375 145.75 C39.98653902 144.88091544 37.53536909 144.01241991 35.08398438 143.14453125 C29.36123915 141.11701062 23.64185402 139.08021414 17.92352295 137.0402832 C15.3508196 136.12483286 12.77610547 135.21553284 10.19970703 134.31054688 C9.19533348 133.95648773 9.19533348 133.95648773 8.17066956 133.59527588 C6.51290617 133.01133378 4.85427839 132.42984706 3.19555664 131.84863281 C1 131 1 131 0 130 C-0.09616807 128.31708304 -0.12187691 126.63010439 -0.12025452 124.94444275 C-0.12163201 123.85151633 -0.12300951 122.75858992 -0.12442875 121.63254452 C-0.12083064 120.41825551 -0.11723253 119.2039665 -0.11352539 117.95288086 C-0.11364593 116.66417619 -0.11376646 115.37547152 -0.11389065 114.04771519 C-0.11411712 110.55044491 -0.10830626 107.05320859 -0.10128021 103.55594635 C-0.09560036 100.27855012 -0.09531792 97.00115545 -0.09460449 93.72375488 C-0.08934968 84.12833206 -0.07538863 74.53291561 -0.0625 64.9375 C-0.041875 43.508125 -0.02125 22.07875 0 0 Z " fill="#E1E5E5" transform="translate(22,18)"/>
<path d="M0 0 C48.84 0 97.68 0 148 0 C148 42.9 148 85.8 148 130 C139.93565199 133.360145 131.97990492 136.50605563 123.734375 139.3203125 C122.61613342 139.70565155 121.49789185 140.0909906 120.34576416 140.48800659 C116.81507981 141.70397085 113.28264131 142.9147343 109.75 144.125 C106.20342037 145.3433828 102.65722503 146.56287113 99.11138916 147.78341675 C96.91703004 148.53840811 94.72219104 149.29200665 92.52679443 150.04397583 C91.52505188 150.38798431 90.52330933 150.7319928 89.49121094 151.08642578 C88.54499878 151.40887268 87.59878662 151.73131958 86.62390137 152.0635376 C84.27379348 152.90228394 82.00065668 153.84331359 79.70410156 154.81591797 C71.80614335 157.34064097 64.47367191 153.60257236 56.99609375 150.921875 C55.84061539 150.51342346 54.68513702 150.10497192 53.49464417 149.68414307 C49.80672984 148.37887203 46.12210809 147.06457137 42.4375 145.75 C39.98653902 144.88091544 37.53536909 144.01241991 35.08398438 143.14453125 C29.36123915 141.11701062 23.64185402 139.08021414 17.92352295 137.0402832 C15.3508196 136.12483286 12.77610547 135.21553284 10.19970703 134.31054688 C9.19533348 133.95648773 9.19533348 133.95648773 8.17066956 133.59527588 C6.51290617 133.01133378 4.85427839 132.42984706 3.19555664 131.84863281 C1 131 1 131 0 130 C-0.09616807 128.31708304 -0.12187691 126.63010439 -0.12025452 124.94444275 C-0.12163201 123.85151633 -0.12300951 122.75858992 -0.12442875 121.63254452 C-0.12083064 120.41825551 -0.11723253 119.2039665 -0.11352539 117.95288086 C-0.11364593 116.66417619 -0.11376646 115.37547152 -0.11389065 114.04771519 C-0.11411712 110.55044491 -0.10830626 107.05320859 -0.10128021 103.55594635 C-0.09560036 100.27855012 -0.09531792 97.00115545 -0.09460449 93.72375488 C-0.08934968 84.12833206 -0.07538863 74.53291561 -0.0625 64.9375 C-0.041875 43.508125 -0.02125 22.07875 0 0 Z M4 5 C4 45.59 4 86.18 4 128 C26.1683138 135.99256635 26.1683138 135.99256635 48.44580078 143.66040039 C50.26575776 144.27318889 52.08407042 144.89087829 53.90087891 145.51293945 C56.59983065 146.43688994 59.30311067 147.34694726 62.0078125 148.25390625 C62.81195587 148.53190567 63.61609924 148.80990509 64.4446106 149.09632874 C71.21032234 151.333971 76.43136109 152.02724073 83.09939575 148.86245728 C86.78235336 147.19120268 90.67821295 146.08073156 94.52734375 144.85546875 C96.39127682 144.2545597 98.25520908 143.65364816 100.11914062 143.05273438 C103.01439378 142.12386603 105.91005574 141.19628524 108.8059082 140.26928711 C111.63075976 139.36371501 114.45407063 138.45344796 117.27734375 137.54296875 C118.11337631 137.27711472 118.94940887 137.01126068 119.81077576 136.73735046 C128.00151428 134.09395135 135.90731966 131.03475513 144 128 C144 87.41 144 46.82 144 5 C97.8 5 51.6 5 4 5 Z " fill="#212A37" transform="translate(22,18)"/>
<path d="M0 0 C0.33 0.66 0.66 1.32 1 2 C2.89533342 2.46523063 2.89533342 2.46523063 5.0625 2.625 C6.361875 2.74875 7.66125 2.8725 9 3 C9 3.66 9 4.32 9 5 C8.01 5 7.02 5 6 5 C6 7.31 6 9.62 6 12 C0.982877 13.0034246 -2.28711947 13.08243558 -7 11 C-9 9 -9 9 -9.3125 5.5 C-9.209375 4.345 -9.10625 3.19 -9 2 C-5.5647952 -0.29013653 -4.014669 -0.17842973 0 0 Z " fill="#D0D3D4" transform="translate(69,115)"/>
<path d="M0 0 C3.63 0 7.26 0 11 0 C11 0.66 11 1.32 11 2 C9.02 2 7.04 2 5 2 C6.93254772 4.0245738 8.63158688 5.42105792 11 7 C11 8.32 11 9.64 11 11 C8.69 11.33 6.38 11.66 4 12 C3.34 11.01 2.68 10.02 2 9 C1.01 9.99 0.02 10.98 -1 12 C-1.99 11.67 -2.98 11.34 -4 11 C-4.33 9.35 -4.66 7.7 -5 6 C-5.33 6 -5.66 6 -6 6 C-6.33 7.65 -6.66 9.3 -7 11 C-7.99 11 -8.98 11 -10 11 C-10.99 7.7 -11.98 4.4 -13 1 C-12.34 1 -11.68 1 -11 1 C-10.34 3.31 -9.68 5.62 -9 8 C-8.34 5.69 -7.68 3.38 -7 1 C-6.01 1 -5.02 1 -4 1 C-3.67 3.31 -3.34 5.62 -3 8 C-2.34 8 -1.68 8 -1 8 C-0.67 5.36 -0.34 2.72 0 0 Z " fill="#878C90" transform="translate(102,34)"/>
<path d="M0 0 C48.84 0 97.68 0 148 0 C148 0.33 148 0.66 148 1 C99.16 1 50.32 1 0 1 C0 0.67 0 0.34 0 0 Z " fill="#232F3E" transform="translate(22,16)"/>
<path d="M0 0 C0.33 0 0.66 0 1 0 C1 42.9 1 85.8 1 130 C0.67 130 0.34 130 0 130 C0 87.1 0 44.2 0 0 Z " fill="#232E3D" transform="translate(171,18)"/>
<path d="M0 0 C0.33 0 0.66 0 1 0 C1 42.9 1 85.8 1 130 C0.67 130 0.34 130 0 130 C0 87.1 0 44.2 0 0 Z " fill="#232F3E" transform="translate(20,18)"/>
<path d="M0 0 C0.66 0 1.32 0 2 0 C2 2.31 2 4.62 2 7 C2.99 7 3.98 7 5 7 C5 4.69 5 2.38 5 0 C6.81242052 -0.02687279 8.62495233 -0.04633715 10.4375 -0.0625 C11.44683594 -0.07410156 12.45617187 -0.08570312 13.49609375 -0.09765625 C16 0 16 0 17 1 C17.04063832 2.66617115 17.042721 4.33388095 17 6 C15.35 5.67 13.7 5.34 12 5 C12 5.66 12 6.32 12 7 C13.65 7 15.3 7 17 7 C17 7.33 17 7.66 17 8 C8.585 8.495 8.585 8.495 0 9 C0 6.03 0 3.06 0 0 Z " fill="#575B66" transform="translate(99,118)"/>
<path d="M0 0 C0.66 0 1.32 0 2 0 C2 0.66 2 1.32 2 2 C2.66 2 3.32 2 4 2 C3.67 3.98 3.34 5.96 3 8 C3.66 8 4.32 8 5 8 C5.144375 7.195625 5.28875 6.39125 5.4375 5.5625 C6 3 6 3 7 2 C8.66617115 1.95936168 10.33388095 1.957279 12 2 C12.33 3.65 12.66 5.3 13 7 C11.35 7 9.7 7 8 7 C8 7.66 8 8.32 8 9 C9.65 9 11.3 9 13 9 C12.67 9.66 12.34 10.32 12 11 C7.80838094 11 4.11142314 10.86556277 0 10 C-2 4.25 -2 4.25 -2 2 C-1.34 2 -0.68 2 0 2 C0 1.34 0 0.68 0 0 Z " fill="#5B6167" transform="translate(119,116)"/>
<path d="M0 0 C-1 3 -1 3 -2.90185547 3.99902344 C-3.71541504 4.28293945 -4.52897461 4.56685547 -5.3671875 4.859375 C-6.25277344 5.17003906 -7.13835937 5.48070312 -8.05078125 5.80078125 C-8.98277344 6.11402344 -9.91476563 6.42726562 -10.875 6.75 C-11.79925781 7.07871094 -12.72351563 7.40742188 -13.67578125 7.74609375 C-20.60807478 10.13064174 -20.60807478 10.13064174 -24 9 C-24 8.01 -24 7.02 -24 6 C-20.56744035 4.79786867 -17.12828802 3.61585206 -13.6875 2.4375 C-12.71103516 2.09525391 -11.73457031 1.75300781 -10.72851562 1.40039062 C-9.79072266 1.08134766 -8.85292969 0.76230469 -7.88671875 0.43359375 C-7.02264404 0.13509521 -6.15856934 -0.16340332 -5.26831055 -0.47094727 C-3 -1 -3 -1 0 0 Z " fill="#1A212E" transform="translate(156,151)"/>
<path d="M0 0 C0 0.66 0 1.32 0 2 C-1.65 2.33 -3.3 2.66 -5 3 C-5.33 4.98 -5.66 6.96 -6 9 C-4.68 9 -3.36 9 -2 9 C-2 8.34 -2 7.68 -2 7 C-2.66 7 -3.32 7 -4 7 C-4 6.34 -4 5.68 -4 5 C-2.35 5 -0.7 5 1 5 C1 6.98 1 8.96 1 11 C-5.0546875 11.1953125 -5.0546875 11.1953125 -7 11 C-9 9 -9 9 -9.3125 5.5 C-9.209375 4.345 -9.10625 3.19 -9 2 C-5.5647952 -0.29013653 -4.014669 -0.17842973 0 0 Z " fill="#19202E" transform="translate(69,115)"/>
<path d="M0 0 C0.66 0 1.32 0 2 0 C2 3.96 2 7.92 2 12 C-0.33294775 12.04241723 -2.66702567 12.04092937 -5 12 C-5.33 11.67 -5.66 11.34 -6 11 C-5.71269945 8.66055264 -5.38063221 6.3260857 -5 4 C-3.35 4 -1.7 4 0 4 C0 2.68 0 1.36 0 0 Z " fill="#363B47" transform="translate(94,114)"/>
<path d="M0 0 C2.31 0.33 4.62 0.66 7 1 C7.33 4.3 7.66 7.6 8 11 C1.84765625 11.87890625 1.84765625 11.87890625 0 12 C-1 11 -1 11 -1.125 8.5 C-1 6 -1 6 0 5 C1.99958364 4.95919217 4.00045254 4.95745644 6 5 C5.67 4.34 5.34 3.68 5 3 C1.97065509 2.34227572 1.97065509 2.34227572 -1 2 C-0.67 1.34 -0.34 0.68 0 0 Z " fill="#2E333C" transform="translate(80,34)"/>
<path d="M0 0 C0.55042969 0.28875 1.10085937 0.5775 1.66796875 0.875 C11.42887583 5.23335851 21.54488618 4.37854471 32 4 C26.49381234 8.30567715 20.84832005 8.65276629 14 8 C9.05113693 6.69529974 4.51733263 4.37159963 0 2 C0 1.34 0 0.68 0 0 Z " fill="#2D313B" transform="translate(77,49)"/>
<path d="M0 0 C0.66 0 1.32 0 2 0 C2.66 2.31 3.32 4.62 4 7 C4.66 4.69 5.32 2.38 6 0 C6.99 0 7.98 0 9 0 C9.33 2.31 9.66 4.62 10 7 C10.66 7 11.32 7 12 7 C12.33 4.69 12.66 2.38 13 0 C13.66 0 14.32 0 15 0 C15.39253254 4.44870215 14.15305957 7.14243493 12 11 C11.01 10.67 10.02 10.34 9 10 C8.67 8.35 8.34 6.7 8 5 C7.67 5 7.34 5 7 5 C6.67 6.65 6.34 8.3 6 10 C5.01 10 4.02 10 3 10 C2.01 6.7 1.02 3.4 0 0 Z " fill="#1B2029" transform="translate(89,35)"/>
<path d="M0 0 C1.99954746 -0.04254356 4.00041636 -0.04080783 6 0 C7 1 7 1 7.0625 4.5625 C7.041875 5.696875 7.02125 6.83125 7 8 C4.69 8 2.38 8 0 8 C0 6.68 0 5.36 0 4 C1.65 4 3.3 4 5 4 C5 3.34 5 2.68 5 2 C3.35 2 1.7 2 0 2 C0 1.34 0 0.68 0 0 Z " fill="#252A32" transform="translate(79,118)"/>
<path d="M0 0 C0.99 0.33 1.98 0.66 3 1 C3 2.32 3 3.64 3 5 C3.30830925 7.00401011 3.63729412 9.00511766 4 11 C2.02 11.33 0.04 11.66 -2 12 C-1.67 11.34 -1.34 10.68 -1 10 C-0.95537091 8.47982163 -0.96095455 6.95783203 -1 5.4375 C-1.03785426 3.95881779 -1.04629173 2.47844212 -1 1 C-0.67 0.67 -0.34 0.34 0 0 Z " fill="#C4C8C9" transform="translate(88,34)"/>
<path d="M0 0 C1.99954746 -0.04254356 4.00041636 -0.04080783 6 0 C7 1 7 1 7.0625 3.5625 C7.041875 4.366875 7.02125 5.17125 7 6 C5.35 5.67 3.7 5.34 2 5 C2 5.66 2 6.32 2 7 C3.65 7 5.3 7 7 7 C7 7.33 7 7.66 7 8 C4.69 8 2.38 8 0 8 C0 6.68 0 5.36 0 4 C1.32 4 2.64 4 4 4 C4 3.34 4 2.68 4 2 C2.68 2 1.36 2 0 2 C0 1.34 0 0.68 0 0 Z " fill="#131826" transform="translate(109,118)"/>
<path d="M0 0 C1.65 0 3.3 0 5 0 C6 5.75 6 5.75 6 8 C5.34 8 4.68 8 4 8 C4 7.01 4 6.02 4 5 C3.34 5 2.68 5 2 5 C2 5.99 2 6.98 2 8 C1.34 8 0.68 8 0 8 C0 5.36 0 2.72 0 0 Z " fill="#4F535A" transform="translate(58,83)"/>
<path d="M0 0 C0.66 0 1.32 0 2 0 C2 0.66 2 1.32 2 2 C2.66 2 3.32 2 4 2 C4 2.66 4 3.32 4 4 C3.34 4 2.68 4 2 4 C2 5.65 2 7.3 2 9 C2.66 9.33 3.32 9.66 4 10 C2.35 9.67 0.7 9.34 -1 9 C-1.33 6.69 -1.66 4.38 -2 2 C-1.34 2 -0.68 2 0 2 C0 1.34 0 0.68 0 0 Z " fill="#192132" transform="translate(119,116)"/>
<path d="M0 0 C1.4391134 0.28359887 2.87625518 0.57721399 4.3125 0.875 C5.11300781 1.03742188 5.91351563 1.19984375 6.73828125 1.3671875 C9 2 9 2 12 4 C11.34 4.66 10.68 5.32 10 6 C7.8359375 5.7578125 7.8359375 5.7578125 5.375 5.125 C4.14910156 4.81949219 4.14910156 4.81949219 2.8984375 4.5078125 C1.95871094 4.25644531 1.95871094 4.25644531 1 4 C0.67 2.68 0.34 1.36 0 0 Z " fill="#181F2C" transform="translate(42,152)"/>
<path d="M0 0 C1.65 0 3.3 0 5 0 C5 2.31 5 4.62 5 7 C4.34 7 3.68 7 3 7 C3 6.01 3 5.02 3 4 C2.34 4 1.68 4 1 4 C0.67 4.99 0.34 5.98 0 7 C0 4.69 0 2.38 0 0 Z " fill="#363B41" transform="translate(118,84)"/>
<path d="M0 0 C1.98 0 3.96 0 6 0 C6 0.66 6 1.32 6 2 C5.01 2 4.02 2 3 2 C3 3.98 3 5.96 3 8 C2.01 8 1.02 8 0 8 C0 5.36 0 2.72 0 0 Z " fill="#0E172A" transform="translate(72,118)"/>
<path d="M0 0 C-2.34591852 2.7710688 -4.14776201 3.52059284 -7.6875 4.1875 C-8.49574219 4.34605469 -9.30398437 4.50460938 -10.13671875 4.66796875 C-11.05904297 4.83232422 -11.05904297 4.83232422 -12 5 C-11 2 -11 2 -9.2578125 1.015625 C-8.55398437 0.76296875 -7.85015625 0.5103125 -7.125 0.25 C-6.07699219 -0.14445313 -6.07699219 -0.14445313 -5.0078125 -0.546875 C-3 -1 -3 -1 0 0 Z " fill="#25303D" transform="translate(135,159)"/>
<path d="M0 0 C-2.90600261 1.25664978 -4.79604584 2 -8 2 C-8.33 3.32 -8.66 4.64 -9 6 C-12 5 -12 5 -14 3 C-12.23358317 2.3012307 -10.46167336 1.61633417 -8.6875 0.9375 C-7.20830078 0.36322266 -7.20830078 0.36322266 -5.69921875 -0.22265625 C-3 -1 -3 -1 0 0 Z " fill="#101821" transform="translate(132,159)"/>
<path d="M0 0 C0.99 0 1.98 0 3 0 C3.66 2.31 4.32 4.62 5 7 C2.525 6.01 2.525 6.01 0 5 C-0.33 5.66 -0.66 6.32 -1 7 C-0.67 4.69 -0.34 2.38 0 0 Z " fill="#2E343E" transform="translate(108,84)"/>
<path d="M0 0 C1.65 0 3.3 0 5 0 C4.34 0.66 3.68 1.32 3 2 C3.66 2.33 4.32 2.66 5 3 C4.67 4.32 4.34 5.64 4 7 C2.68 7 1.36 7 0 7 C0 4.66666667 0 2.33333333 0 0 Z " fill="#373B43" transform="translate(87,84)"/>
<path d="M0 0 C0.66 0 1.32 0 2 0 C2.39253254 4.44870215 1.15305957 7.14243493 -1 11 C-1.99 10.67 -2.98 10.34 -4 10 C-3.67 9.01 -3.34 8.02 -3 7 C-2.34 7 -1.68 7 -1 7 C-0.67 4.69 -0.34 2.38 0 0 Z " fill="#44474E" transform="translate(102,35)"/>
<path d="M0 0 C1.65 0 3.3 0 5 0 C5.33 1.65 5.66 3.3 6 5 C4.68 4.67 3.36 4.34 2 4 C2.66 4 3.32 4 4 4 C4 3.34 4 2.68 4 2 C2.68 2 1.36 2 0 2 C-0.33 2.99 -0.66 3.98 -1 5 C-0.67 3.35 -0.34 1.7 0 0 Z " fill="#151B28" transform="translate(126,118)"/>
<path d="M0 0 C1.98 0 3.96 0 6 0 C5.67 1.98 5.34 3.96 5 6 C4.34 6 3.68 6 3 6 C3 5.34 3 4.68 3 4 C2.01 3.67 1.02 3.34 0 3 C0 2.01 0 1.02 0 0 Z " fill="#5E646B" transform="translate(109,49)"/>
<path d="M0 0 C-0.33 0.99 -0.66 1.98 -1 3 C-2.65 3 -4.3 3 -6 3 C-6 2.01 -6 1.02 -6 0 C-3.50907189 -1.24546405 -2.58919267 -0.7767578 0 0 Z " fill="#C3C6C8" transform="translate(86,41)"/>
<path d="M0 0 C-4.625 2.125 -4.625 2.125 -8 1 C-3.375 -1.125 -3.375 -1.125 0 0 Z " fill="#222D3C" transform="translate(118,169)"/>
<path d="M0 0 C5.75 0.75 5.75 0.75 8 3 C2.25 2.25 2.25 2.25 0 0 Z " fill="#232F3D" transform="translate(74,168)"/>
<path d="M0 0 C-4.625 2.125 -4.625 2.125 -8 1 C-3.375 -1.125 -3.375 -1.125 0 0 Z " fill="#202C3C" transform="translate(135,163)"/>
<path d="M0 0 C5.75 0.75 5.75 0.75 8 3 C2.25 2.25 2.25 2.25 0 0 Z " fill="#222E3D" transform="translate(57,162)"/>
<path d="M0 0 C0.99 0.33 1.98 0.66 3 1 C1.35 1.33 -0.3 1.66 -2 2 C-1.34 1.34 -0.68 0.68 0 0 Z " fill="#202C3B" transform="translate(149,156)"/>
<path d="M0 0 C2.475 0.495 2.475 0.495 5 1 C4.01 1.33 3.02 1.66 2 2 C1.34 1.34 0.68 0.68 0 0 Z " fill="#222E3D" transform="translate(40,156)"/>
<path d="M0 0 C0.99 0.33 1.98 0.66 3 1 C1.35 1.33 -0.3 1.66 -2 2 C-1.34 1.34 -0.68 0.68 0 0 Z " fill="#202C3B" transform="translate(166,150)"/>
<path d="M0 0 C2.475 0.495 2.475 0.495 5 1 C4.01 1.33 3.02 1.66 2 2 C1.34 1.34 0.68 0.68 0 0 Z " fill="#222E3D" transform="translate(23,150)"/>
<path d="M0 0 C4 1 4 1 4 1 Z " fill="#232F3E" transform="translate(94,175)"/>
<path d="M0 0 C3 1 3 1 3 1 Z " fill="#222E3D" transform="translate(98,174)"/>
<path d="M0 0 C3 1 3 1 3 1 Z " fill="#232F3E" transform="translate(91,174)"/>
<path d="M0 0 C3 1 3 1 3 1 Z " fill="#222E3D" transform="translate(101,173)"/>
<path d="M0 0 C3 1 3 1 3 1 Z " fill="#232F3E" transform="translate(88,173)"/>
<path d="M0 0 C3 1 3 1 3 1 Z " fill="#222E3D" transform="translate(104,172)"/>
<path d="M0 0 C3 1 3 1 3 1 Z " fill="#232F3E" transform="translate(85,172)"/>
<path d="M0 0 C3 1 3 1 3 1 Z " fill="#222E3D" transform="translate(107,171)"/>
<path d="M0 0 C3 1 3 1 3 1 Z " fill="#232F3E" transform="translate(82,171)"/>
<path d="M0 0 C3 1 3 1 3 1 Z " fill="#222E3C" transform="translate(118,167)"/>
<path d="M0 0 C3 1 3 1 3 1 Z " fill="#232F3E" transform="translate(71,167)"/>
<path d="M0 0 C3 1 3 1 3 1 Z " fill="#222E3C" transform="translate(121,166)"/>
<path d="M0 0 C3 1 3 1 3 1 Z " fill="#232F3E" transform="translate(68,166)"/>
<path d="M0 0 C3 1 3 1 3 1 Z " fill="#222E3D" transform="translate(124,165)"/>
<path d="M0 0 C3 1 3 1 3 1 Z " fill="#232F3E" transform="translate(65,165)"/>
<path d="M0 0 C3 1 3 1 3 1 Z " fill="#202D3C" transform="translate(135,161)"/>
<path d="M0 0 C3 1 3 1 3 1 Z " fill="#232E3D" transform="translate(54,161)"/>
<path d="M0 0 C3 1 3 1 3 1 Z " fill="#212D3C" transform="translate(138,160)"/>
<path d="M0 0 C3 1 3 1 3 1 Z " fill="#232E3D" transform="translate(51,160)"/>
<path d="M0 0 C3 1 3 1 3 1 Z " fill="#212D3C" transform="translate(141,159)"/>
<path d="M0 0 C3 1 3 1 3 1 Z " fill="#232F3D" transform="translate(48,159)"/>
<path d="M0 0 C3 1 3 1 3 1 Z " fill="#212E3C" transform="translate(144,158)"/>
<path d="M0 0 C3 1 3 1 3 1 Z " fill="#232E3D" transform="translate(45,158)"/>
<path d="M0 0 C3 1 3 1 3 1 Z " fill="#202C3B" transform="translate(152,155)"/>
<path d="M0 0 C3 1 3 1 3 1 Z " fill="#222E3D" transform="translate(37,155)"/>
<path d="M0 0 C3 1 3 1 3 1 Z " fill="#202D3C" transform="translate(155,154)"/>
<path d="M0 0 C3 1 3 1 3 1 Z " fill="#222E3D" transform="translate(34,154)"/>
<path d="M0 0 C3 1 3 1 3 1 Z " fill="#202D3C" transform="translate(158,153)"/>
<path d="M0 0 C3 1 3 1 3 1 Z " fill="#222E3D" transform="translate(31,153)"/>
<path d="M0 0 C3 1 3 1 3 1 Z " fill="#202D3C" transform="translate(161,152)"/>
<path d="M0 0 C3 1 3 1 3 1 Z " fill="#232E3D" transform="translate(28,152)"/>
<path d="M0 0 C0.66 0.66 1.32 1.32 2 2 C1.34 2 0.68 2 0 2 C0 1.34 0 0.68 0 0 Z " fill="#232F3E" transform="translate(21,148)"/>
<path d="M0 0 C0.33 0.66 0.66 1.32 1 2 C0.34 1.67 -0.32 1.34 -1 1 C-0.67 0.67 -0.34 0.34 0 0 Z " fill="#212D3C" transform="translate(170,148)"/>
<path d="" fill="#232F3E" transform="translate(0,0)"/>
<path d="" fill="#232F3E" transform="translate(0,0)"/>
</svg>
