<?xml version="1.0" encoding="UTF-8"?>
<svg version="1.1" xmlns="http://www.w3.org/2000/svg" width="512" height="512">
<path d="M0 0 C0.73524902 0.40347656 1.47049805 0.80695312 2.22802734 1.22265625 C5.80008961 3.18633362 9.36179891 5.16785808 12.91796875 7.16015625 C19.19999744 10.67763368 25.50725481 14.14938996 31.8125 17.625 C33.06316729 18.3146678 34.31381822 19.00436527 35.56445312 19.6940918 C38.10882245 21.09728457 40.65326246 22.50034902 43.19775391 23.90332031 C48.69861537 26.9364974 54.19857571 29.97130763 59.69857788 33.00604248 C62.71567918 34.67076642 65.73284284 36.33537732 68.75 38 C69.95833363 38.66666613 71.16666696 39.3333328 72.375 40 C72.973125 40.33 73.57125 40.66 74.1875 41 C108.625 60 108.625 60 110.4372406 60.99989319 C111.64639766 61.66699011 112.8555957 62.33401273 114.06483459 63.0009613 C117.07340434 64.66044043 120.08126618 66.32117641 123.08764648 67.98461914 C128.67048851 71.07191707 134.25898835 74.14700723 139.87234497 77.17855835 C142.47922399 78.58741764 145.08225751 80.00330197 147.68505859 81.41967773 C148.90859661 82.08299763 150.13394187 82.74299804 151.36132812 83.39916992 C165.96088859 91.2066723 181.49346375 100.50670786 187 117 C188.64092408 123.44851933 189.29210524 129.64072257 189.26069641 136.27729797 C189.26452196 137.15463362 189.26834751 138.03196927 189.27228898 138.93589085 C189.2825235 141.84575107 189.27864513 144.75541043 189.2746582 147.6652832 C189.27900999 149.76386699 189.2841947 151.86244919 189.29014587 153.96102905 C189.30349749 159.64089869 189.30411877 165.32070162 189.30158257 171.00058389 C189.30051016 175.75181331 189.30540319 180.50302939 189.310188 185.25425595 C189.32127012 196.46891198 189.321728 207.68353451 189.31567383 218.89819336 C189.30963578 230.44525176 189.32194379 241.99218827 189.3432439 253.53922588 C189.360891 263.47331431 189.36685631 273.40736404 189.36360615 283.34146756 C189.36179797 289.2656916 189.36438299 295.1898287 189.37832069 301.11403847 C189.39094487 306.68816417 189.38891159 312.26210063 189.37590981 317.8362236 C189.37355438 319.87388232 189.37624133 321.91155456 189.38453293 323.94919777 C189.4475389 340.64570204 188.81289127 355.52655685 177 368.5625 C160.40305606 383.9182195 136.55226986 393.57157734 116.77539062 404.2277832 C110.0106207 407.8823462 103.30635915 411.63286905 96.625 415.4375 C87.3907115 420.6958702 78.06208066 425.75779347 68.69189453 430.76928711 C61.57306976 434.58683491 54.51758627 438.49968383 47.5 442.5 C38.31596918 447.73527971 29.03936888 452.77664051 19.71337891 457.75415039 C13.35365448 461.15921127 7.05914141 464.65486013 0.80639648 468.25244141 C-36.01174501 489.41666332 -36.01174501 489.41666332 -57.27734375 484.1953125 C-68.93678525 480.726597 -79.38916193 474.84807656 -90 469 C-90.73524902 468.59652344 -91.47049805 468.19304687 -92.22802734 467.77734375 C-95.80008961 465.81366638 -99.36179891 463.83214192 -102.91796875 461.83984375 C-109.19999744 458.32236632 -115.50725481 454.85061004 -121.8125 451.375 C-123.06316729 450.6853322 -124.31381822 449.99563473 -125.56445312 449.3059082 C-128.10882245 447.90271543 -130.65326246 446.49965098 -133.19775391 445.09667969 C-138.69861537 442.0635026 -144.19857571 439.02869237 -149.69857788 435.99395752 C-152.71567918 434.32923358 -155.73284284 432.66462268 -158.75 431 C-159.95833363 430.33333387 -161.16666696 429.6666672 -162.375 429 C-162.973125 428.67 -163.57125 428.34 -164.1875 428 C-198.625 409 -198.625 409 -200.4372406 408.00010681 C-201.64639766 407.33300989 -202.8555957 406.66598727 -204.06483459 405.9990387 C-207.07340434 404.33955957 -210.08126618 402.67882359 -213.08764648 401.01538086 C-218.67048851 397.92808293 -224.25898835 394.85299277 -229.87234497 391.82144165 C-232.47922399 390.41258236 -235.08225751 388.99669803 -237.68505859 387.58032227 C-238.90859661 386.91700237 -240.13394187 386.25700196 -241.36132812 385.60083008 C-255.96088859 377.7933277 -271.49346375 368.49329214 -277 352 C-278.64092408 345.55148067 -279.29210524 339.35927743 -279.26069641 332.72270203 C-279.26452196 331.84536638 -279.26834751 330.96803073 -279.27228898 330.06410915 C-279.2825235 327.15424893 -279.27864513 324.24458957 -279.2746582 321.3347168 C-279.27900999 319.23613301 -279.2841947 317.13755081 -279.29014587 315.03897095 C-279.30349749 309.35910131 -279.30411877 303.67929838 -279.30158257 297.99941611 C-279.30051016 293.24818669 -279.30540319 288.49697061 -279.310188 283.74574405 C-279.32127012 272.53108802 -279.321728 261.31646549 -279.31567383 250.10180664 C-279.30963578 238.55474824 -279.32194379 227.00781173 -279.3432439 215.46077412 C-279.360891 205.52668569 -279.36685631 195.59263596 -279.36360615 185.65853244 C-279.36179797 179.7343084 -279.36438299 173.8101713 -279.37832069 167.88596153 C-279.39094487 162.31183583 -279.38891159 156.73789937 -279.37590981 151.1637764 C-279.37355438 149.12611768 -279.37624133 147.08844544 -279.38453293 145.05080223 C-279.4475389 128.35429796 -278.81289127 113.47344315 -267 100.4375 C-250.40305606 85.0817805 -226.55226986 75.42842266 -206.77539062 64.7722168 C-200.0106207 61.1176538 -193.30635915 57.36713095 -186.625 53.5625 C-177.3907115 48.3041298 -168.06208066 43.24220653 -158.69189453 38.23071289 C-151.57306976 34.41316509 -144.51758627 30.50031617 -137.5 26.5 C-128.31596918 21.26472029 -119.03936888 16.22335949 -109.71337891 11.24584961 C-103.35365448 7.84078873 -97.05914141 4.34513987 -90.80639648 0.74755859 C-56.32649952 -19.07256707 -34.6678399 -19.10689622 0 0 Z " fill="#293138" transform="translate(301,21)"/>
<path d="M0 0 C1.13953125 0.60714844 2.2790625 1.21429688 3.453125 1.83984375 C4.11304443 2.18635986 4.77296387 2.53287598 5.45288086 2.88989258 C6.98489384 3.6984975 8.51250422 4.51547576 10.03662109 5.33886719 C13.06842993 6.97441174 16.11388045 8.58297263 19.16015625 10.19140625 C31.2012629 16.57258753 43.14356387 23.10489135 54.97875977 29.86206055 C62.48478029 34.13105688 70.0800302 38.22261893 77.703125 42.27734375 C87.42842563 47.45150061 97.08323446 52.73211462 106.64624023 58.20166016 C111.04088233 60.71500348 115.4445939 63.19155204 119.91796875 65.5625 C121.14845947 66.22125122 121.14845947 66.22125122 122.40380859 66.89331055 C123.91203145 67.69731151 125.42620149 68.49031827 126.94775391 69.26879883 C131.92008422 71.93581926 135.52231724 75.09014571 138.703125 79.77734375 C139.47366966 80.90905502 139.47366966 80.90905502 140.25978088 82.06362915 C142.45062763 87.70066294 142.13686574 93.1542662 142.12304688 99.15136719 C142.13039297 100.51532687 142.13898077 101.87928035 142.14871216 103.2432251 C142.17088525 106.93769359 142.17386081 110.63193876 142.17196465 114.32646465 C142.1718447 117.41759146 142.18041904 120.50867138 142.18874216 123.59978509 C142.20796275 130.89826112 142.21086568 138.19662279 142.20410156 145.49511719 C142.19746827 153.00582895 142.22029915 160.51604867 142.25741529 168.02666068 C142.28818722 174.48975812 142.29946405 180.95269793 142.29557848 187.41586709 C142.29351793 191.2693974 142.2988812 195.12254509 142.32347107 198.97600555 C142.34585908 202.60420871 142.34376208 206.2316172 142.32354355 209.85982513 C142.31854898 211.81164857 142.33806699 213.76348763 142.35855103 215.71520996 C142.27826178 224.18951263 140.87177388 231.17980439 135.03430939 237.61785507 C130.77074976 241.63661657 125.59297841 244.18420898 120.390625 246.77734375 C115.08747297 249.47600121 109.90085525 252.17929929 104.890625 255.40234375 C101.37858083 257.56218973 98.91065254 258.70094736 94.703125 257.77734375 C92.47911381 256.12040233 91.77923375 255.2424538 91.32674408 252.47723293 C91.32603157 251.56817731 91.32531906 250.65912169 91.32458496 249.72251892 C91.31638229 248.67793015 91.30817963 247.63334137 91.29972839 246.55709839 C91.30587662 245.41153473 91.31202484 244.26597107 91.31835938 243.08569336 C91.3129866 241.87902512 91.30761383 240.67235687 91.30207825 239.42912292 C91.29228122 236.80485358 91.28786957 234.18121211 91.29243469 231.55698967 C91.2992363 227.41008107 91.28339146 223.26345008 91.26403809 219.11659241 C91.2229405 209.56689364 91.21162785 200.01720236 91.20050812 190.46743011 C91.19001008 181.71274705 91.17328868 172.95819698 91.13241243 164.20359617 C91.1140147 160.07864223 91.11017823 155.9540047 91.11734772 151.82901943 C91.11922153 148.6658367 91.10199523 145.50274538 91.08789062 142.33959961 C91.09403885 141.19201172 91.10018707 140.04442383 91.10652161 138.86206055 C91.09831894 137.8202916 91.09011627 136.77852264 91.08166504 135.70518494 C91.08095253 134.79650634 91.08024002 133.88782774 91.07950592 132.95161343 C90.89319736 131.87534994 90.89319736 131.87534994 90.703125 130.77734375 C87.9718653 128.50363947 87.9718653 128.50363947 85.3347168 128.99047852 C82.50994785 129.83510513 80.18048969 130.94618391 77.59765625 132.3671875 C76.62296387 132.89932861 75.64827148 133.43146973 74.64404297 133.97973633 C73.61166504 134.55232178 72.57928711 135.12490723 71.515625 135.71484375 C70.44715332 136.30096436 69.37868164 136.88708496 68.27783203 137.4909668 C65.08245981 139.24629573 61.8923179 141.01081836 58.703125 142.77734375 C57.00663104 143.71245846 55.31002743 144.64737428 53.61328125 145.58203125 C49.97284129 147.59081444 46.34504778 149.6213234 42.71972656 151.65722656 C40.72186342 152.76693554 38.71104591 153.84893696 36.6953125 154.92578125 C28.25557394 159.48751063 21.95392184 163.47605876 18.703125 172.77734375 C18.40505643 175.37758368 18.40505643 175.37758368 18.44483948 178.12841797 C18.43459747 179.71816437 18.43459747 179.71816437 18.42414856 181.34002686 C18.42670151 182.49238831 18.42925446 183.64474976 18.43188477 184.83203125 C18.42665802 186.05367981 18.42143127 187.27532837 18.41604614 188.53399658 C18.40580793 191.18537078 18.3990885 193.83648614 18.39816475 196.487854 C18.39622016 200.68191767 18.37814649 204.87581701 18.35740662 209.06982422 C18.30827484 219.48538705 18.27732908 229.90099433 18.25610352 240.31665039 C18.23957632 248.4152125 18.21675816 256.51363321 18.17308277 264.6121006 C18.15132075 268.77968544 18.14324712 272.94700154 18.14547551 277.11463928 C18.1434156 280.31736982 18.12205608 283.51998355 18.10375977 286.72265625 C18.10833694 287.8750177 18.11291412 289.02737915 18.11763 290.21466064 C18.10798218 291.27449158 18.09833435 292.33432251 18.08839417 293.42626953 C18.08537717 294.80336594 18.08537717 294.80336594 18.08229923 296.20828247 C17.47865784 300.29820105 15.56647865 302.94015233 12.640625 305.77734375 C3.88867674 311.73611703 -3.51590413 314.64216033 -14.296875 312.77734375 C-20.74177057 310.23530563 -26.70892285 307.06300291 -31.296875 301.77734375 C-32.29887263 298.77135087 -32.42158903 296.78922831 -32.42144775 293.64900208 C-32.42401077 292.5878418 -32.42657379 291.52668152 -32.42921448 290.43336487 C-32.42711472 289.26917526 -32.42501495 288.10498566 -32.42285156 286.90551758 C-32.4247197 285.67922638 -32.42658783 284.45293518 -32.42851257 283.18948364 C-32.43252153 280.52123708 -32.43486564 277.85303823 -32.43497467 275.18479347 C-32.43611593 270.96069577 -32.44896193 266.73668529 -32.46453857 262.51261902 C-32.46711143 261.79928856 -32.46968428 261.08595811 -32.4723351 260.35101157 C-32.47760176 258.89224809 -32.48288725 257.43348467 -32.48819113 255.97472131 C-32.5232731 246.14190693 -32.54985612 236.30920055 -32.54736328 226.47631836 C-32.54577189 219.84249003 -32.56187671 213.20895908 -32.59806991 206.57522601 C-32.61648816 203.0671214 -32.62590975 199.55951297 -32.61359406 196.05137062 C-32.59997088 192.13268635 -32.62515376 188.21476 -32.65332031 184.29614258 C-32.64312363 183.14207413 -32.63292694 181.98800568 -32.62242126 180.79896545 C-32.71144774 173.88346404 -33.64852943 169.05802488 -38.296875 163.77734375 C-44.18549217 158.37115242 -51.32414965 154.89555572 -58.359375 151.21484375 C-60.69771577 149.97466512 -63.03516072 148.73297183 -65.37109375 147.48828125 C-65.9577179 147.17627274 -66.54434204 146.86426422 -67.14874268 146.5428009 C-72.71380653 143.57416501 -78.19699212 140.47070155 -83.671875 137.33984375 C-92.24453527 132.44955122 -100.90045042 127.73133651 -109.609375 123.08984375 C-120.23404271 117.42660081 -130.81188461 111.69541154 -141.296875 105.77734375 C-141.98571777 105.38901367 -142.67456055 105.00068359 -143.38427734 104.60058594 C-155.07470519 97.99951356 -155.07470519 97.99951356 -156.296875 96.77734375 C-157.06260221 89.63474073 -156.66201684 83.63088638 -152.296875 77.77734375 C-145.66963785 70.07680084 -132.98341109 62.50678405 -122.859375 61.40234375 C-113.25771079 61.53352896 -103.85422667 67.93370602 -95.796875 72.65234375 C-87.04686636 77.68969932 -78.21346652 82.54284201 -69.296875 87.27734375 C-60.54101816 91.93110191 -51.84983396 96.67997424 -43.234375 101.58984375 C-40.47359354 103.15082516 -37.71193366 104.71024359 -34.95019531 106.26953125 C-33.18187741 107.27442004 -31.41816524 108.28745737 -29.65917969 109.30859375 C-27.15522917 110.75939269 -24.63500293 112.17721303 -22.109375 113.58984375 C-21.39193115 114.01692627 -20.6744873 114.44400879 -19.93530273 114.8840332 C-13.84182869 118.22810704 -8.15115207 119.03311652 -1.296875 117.77734375 C3.83263309 115.79332627 8.50629721 113.20196106 13.265625 110.46484375 C14.58381678 109.72749082 15.90300065 108.99190883 17.22314453 108.25805664 C19.8406588 106.79802914 22.4491609 105.32347446 25.05224609 103.83789062 C28.2936667 101.99522697 31.5756129 100.24146718 34.87890625 98.51171875 C36.61253739 97.58046553 38.34565679 96.64825865 40.078125 95.71484375 C40.86775635 95.31160889 41.6573877 94.90837402 42.47094727 94.49291992 C44.475186 93.37516698 46.11337091 92.43229092 47.703125 90.77734375 C48.3409397 87.0678131 48.3409397 87.0678131 47.703125 83.77734375 C47.07035645 83.43590332 46.43758789 83.09446289 45.78564453 82.74267578 C32.37743461 75.50384297 19.00781424 68.20445943 5.703125 60.77734375 C1.32939374 58.33756081 -3.04582498 55.90046512 -7.421875 53.46484375 C-8.56414551 52.82828857 -9.70641602 52.1917334 -10.88330078 51.53588867 C-16.59434772 48.36072005 -22.31887925 45.2164319 -28.08203125 42.13671875 C-29.1601709 41.55962158 -30.23831055 40.98252441 -31.34912109 40.38793945 C-33.3736162 39.30758865 -35.40109207 38.23279665 -37.43212891 37.16479492 C-50.24099677 30.32882868 -50.24099677 30.32882868 -53.296875 26.77734375 C-53.73461914 24.27246094 -53.73461914 24.27246094 -53.296875 21.77734375 C-51.78955078 20.22924805 -51.78955078 20.22924805 -49.6171875 18.9140625 C-48.79379883 18.41052246 -47.97041016 17.90698242 -47.12207031 17.38818359 C-41.84413063 14.37886403 -36.53353763 11.44756724 -31.171875 8.58984375 C-29.46064453 7.66655273 -29.46064453 7.66655273 -27.71484375 6.72460938 C-24.58853037 5.04889088 -21.44969014 3.40255651 -18.296875 1.77734375 C-17.61012695 1.41688965 -16.92337891 1.05643555 -16.21582031 0.68505859 C-10.6224467 -2.01972576 -5.74872396 -2.13193199 0 0 Z " fill="#FDFDFE" transform="translate(263.296875,99.22265625)"/>
<path d="M0 0 C3.20043945 1.37353516 3.20043945 1.37353516 6.61328125 3.2890625 C7.22713181 3.62996918 7.84098236 3.97087585 8.47343445 4.32211304 C9.76840419 5.04427272 11.06001614 5.77248292 12.34838867 6.50634766 C14.2898234 7.61208463 16.24025943 8.70018296 18.19335938 9.78515625 C38.16182357 20.94091877 38.16182357 20.94091877 41 26 C41.45654468 29.25342358 41.40949847 32.48908723 41.38818359 35.76977539 C41.39344055 36.76040482 41.39869751 37.75103424 41.40411377 38.77168274 C41.41732111 42.04716747 41.40857354 45.32216655 41.3984375 48.59765625 C41.40045786 50.87161859 41.40336897 53.14558029 41.40713501 55.41954041 C41.41155923 60.18511118 41.40512339 64.95051328 41.39111328 69.71606445 C41.3740118 75.83198229 41.3838683 81.94750546 41.40183067 88.06340885 C41.41265746 92.75848885 41.40922739 97.45347487 41.4014473 102.14855766 C41.39944274 104.40406783 41.40191348 106.65958647 41.40888596 108.91508675 C41.41648319 112.06349513 41.40492055 115.21125892 41.38818359 118.35961914 C41.39729263 119.76467712 41.39729263 119.76467712 41.40658569 121.19812012 C41.39812622 122.05470718 41.38966675 122.91129425 41.38095093 123.7938385 C41.37981985 124.53806092 41.37868877 125.28228334 41.37752342 126.04905796 C40.89072524 128.56470333 40.00831208 129.45126021 38 131 C32.21165948 132.02147186 28.30140355 129.34190906 23.5 126.5 C22.71334961 126.04584717 21.92669922 125.59169434 21.11621094 125.1237793 C19.51053903 124.19666785 17.90732799 123.26528097 16.30664062 122.32958984 C14.1970094 121.11355982 12.07019634 119.94665888 9.921875 118.80078125 C0.74036458 113.86716538 -5.76755499 109.26415402 -9 99 C-9.41446894 95.80856611 -9.41068131 92.655364 -9.38818359 89.44042969 C-9.39344055 88.50788361 -9.39869751 87.57533752 -9.40411377 86.61453247 C-9.41725566 83.55014007 -9.4085991 80.48627213 -9.3984375 77.421875 C-9.40045922 75.28672181 -9.40337147 73.15156929 -9.40713501 71.01641846 C-9.4115499 66.55124305 -9.40515154 62.08624813 -9.39111328 57.62109375 C-9.37398046 51.89199932 -9.38389388 46.16332525 -9.40183067 40.43424606 C-9.41265561 36.02997654 -9.40922881 31.62580722 -9.4014473 27.22153473 C-9.39944387 25.10836996 -9.40190954 22.99519614 -9.40888596 20.88204193 C-9.41648367 17.93511204 -9.40492157 14.98887063 -9.38818359 12.04199219 C-9.39425629 11.16610443 -9.40032898 10.29021667 -9.40658569 9.38778687 C-9.34381587 3.43862745 -9.34381587 3.43862745 -7.64957619 1.27717972 C-5.05119748 -0.73460768 -3.20475305 -0.39049818 0 0 Z " fill="#FDFDFD" transform="translate(116,226)"/>
<path d="M0 0 C1.98 0.495 1.98 0.495 4 1 C4 1.66 4 2.32 4 3 C2.35 3.66 0.7 4.32 -1 5 C-0.67 3.35 -0.34 1.7 0 0 Z " fill="#32393B" transform="translate(286,200)"/>
</svg>
